# xmcd
#
# Track frame offsets:
#	150
#	9580
#	18940
#	28615
#	39732
#	50447
#	61585
#	73130
#	83154
#	93807
#	107340
#	119510
#	129440
#	142722
#	154640
#	165845
#	176592
#	189145
#	200067
#	211270
#
# Disc length: 2949 seconds
#
# Revision: 3
# Processed by: cddbd v1.5.2PL0 Copyright (c) Steve Scherf et al.
# Submitted via: audiograbber 1.83.01
#
DISCID=f50b8314
DTITLE=Major Lance - Everybody Loves A Good Time - The Best Of  [CD2)
DYEAR=1900
DGENRE=Oldies
TTITLE0=Ain't It A Shame
TTITLE1=Sweet Music
TTITLE2=Girls
TTITLE3=I Just Can't Help It
TTITLE4=Rhythm
TTITLE5=The Matador
TTITLE6=I'm So Lost
TTITLE7=Sometimes I Wonder
TTITLE8=Come See
TTITLE9=Get My Hat (Nothing Can Stop Me)
TTITLE10=Too Hot To Hold
TTITLE11=Everybody Loves A Good Time
TTITLE12=Dark and Lonely
TTITLE13=Investigate
TTITLE14=It's The Beat
TTITLE15=Ain't No Soul (In These Old Shoes)
TTITLE16=Without A Doubt
TTITLE17=Don't Fight It
TTITLE18=Wait Till I Get You In My Arms
TTITLE19=You Don't Want Me No More
EXTD=
EXTT0=
EXTT1=
EXTT2=
EXTT3=
EXTT4=
EXTT5=
EXTT6=
EXTT7=
EXTT8=
EXTT9=
EXTT10=
EXTT11=
EXTT12=
EXTT13=
EXTT14=
EXTT15=
EXTT16=
EXTT17=
EXTT18=
EXTT19=
PLAYORDER=
